<svg xmlns="http://www.w3.org/2000/svg" xmlns:xlink="http://www.w3.org/1999/xlink" aria-hidden="true" role="img" class="iconify iconify--logos" width="31.88" height="32" preserveAspectRatio="xMidYMid meet" viewBox="0 0 256 257"><defs><linearGradient id="IconifyId181308a47638361f36" x1="-.828" x2="1" y1="1" y2="-.828"><stop offset="0" stop-color="#41D1FF"></stop><stop offset="1" stop-color="#BD34FE"></stop></linearGradient><linearGradient id="IconifyId181308a47638361f37" x1="-.828" x2="1" y1="1" y2="-.828"><stop offset="0" stop-color="#FFEA83"></stop><stop offset=".08" stop-color="#FFDD35"></stop><stop offset="1" stop-color="#FFA800"></stop></linearGradient></defs><path fill="url(#IconifyId181308a47638361f36)" d="M255.153 37.342L138.648 252.341c-2.266 4.09-7.828 5.915-12.031 4.031l-65.738-29.428c-4.209-1.884-6.68-6.348-5.698-10.825l28.843-130.638l-40.063 28.61c-3.832 2.735-9.157 1.42-11.583-2.835L4.417 40.54C1.99 36.285 3.513 30.76 7.345 28.025l194.26-138.74c4.18-2.986 9.87-1.157 12.036 4.06z"></path><path fill="url(#IconifyId181308a47638361f37)" d="M241.137 1.83l-95.215 68.002l68.18 30.672c4.209 1.884 6.68 6.348 5.698 10.825L190.957 242.02c1.47 6.63 8.33 10.232 14.39 7.828l37.83-16.924c6.06-2.404 9.23-9.15 7.828-15.604L241.137 1.83z"></path></svg>
